<?xml version="1.0" standalone="no"?>
<!DOCTYPE svg PUBLIC "-//W3C//DTD SVG 20010904//EN"
 "http://www.w3.org/TR/2001/REC-SVG-20010904/DTD/svg10.dtd">
<svg version="1.0" xmlns="http://www.w3.org/2000/svg"
 width="1280.000000pt" height="687.000000pt" viewBox="0 0 1280.000000 687.000000"
 preserveAspectRatio="xMidYMid meet">
<g transform="translate(0.000000,687.000000) scale(0.100000,-0.100000)"
fill="#000000" stroke="none">
<path d="M6253 6852 c-74 -26 -119 -60 -157 -117 -45 -67 -59 -114 -54 -189 9
-140 119 -257 266 -281 31 -5 42 -11 38 -20 -3 -8 -21 -99 -41 -202 -20 -103
-45 -219 -57 -258 -87 -297 -246 -472 -476 -520 -37 -8 -77 -15 -89 -15 -13 0
-23 -3 -23 -7 1 -5 67 -48 147 -97 80 -49 181 -115 224 -147 71 -53 79 -63 94
-111 41 -139 44 -283 7 -388 -46 -132 -199 -347 -349 -491 -379 -363 -908
-504 -1460 -389 -307 64 -613 222 -835 430 l-82 76 34 50 c45 66 180 199 324
318 l118 99 -74 39 c-172 89 -292 227 -413 473 -62 127 -175 405 -175 432 0 4
26 16 59 25 119 35 202 144 209 274 4 62 0 80 -24 134 -88 198 -354 241 -506
83 -127 -131 -102 -352 50 -453 45 -30 79 -42 154 -54 l37 -7 -54 -157 c-97
-287 -168 -426 -280 -549 -64 -71 -170 -146 -268 -188 -37 -16 -67 -32 -67
-35 1 -3 38 -34 83 -70 129 -102 254 -228 308 -309 48 -71 49 -75 32 -91 -464
-439 -770 -637 -1070 -690 -104 -19 -307 -8 -398 20 -337 106 -611 439 -701
850 -22 101 -22 311 0 408 37 166 119 307 245 424 l72 67 -38 9 c-247 57 -384
117 -520 227 -103 82 -180 172 -344 400 -164 229 -176 242 -189 229 -7 -7 -6
-24 4 -55 8 -24 51 -170 96 -324 45 -154 103 -354 130 -445 194 -657 293
-1000 315 -1095 14 -60 47 -175 74 -255 28 -80 81 -253 120 -385 38 -132 120
-411 181 -620 61 -209 138 -470 170 -580 32 -110 91 -310 130 -445 40 -135 96
-326 125 -425 29 -99 89 -306 134 -460 l83 -280 116 -34 c1109 -324 2172 -525
3287 -621 516 -44 759 -54 1360 -54 567 0 766 6 1220 40 1151 85 2375 315
3426 644 118 38 129 39 183 29 32 -6 59 -9 61 -7 2 2 58 190 125 418 67 228
143 489 170 580 27 91 81 275 120 410 39 135 93 319 120 410 27 91 103 352
170 580 67 228 157 534 200 680 43 146 108 366 143 490 36 124 116 396 177
605 126 431 230 783 300 1025 51 172 52 212 5 155 -14 -17 -83 -111 -154 -210
-164 -228 -241 -318 -344 -400 -136 -110 -275 -170 -520 -227 l-38 -9 72 -67
c126 -117 208 -258 245 -424 22 -97 22 -307 0 -408 -90 -411 -364 -744 -701
-850 -91 -28 -294 -39 -398 -20 -300 53 -606 251 -1070 690 -17 16 -16 20 32
91 54 81 179 207 308 309 45 36 82 67 83 70 0 3 -30 19 -67 35 -205 89 -351
245 -455 488 -42 97 -148 400 -148 423 0 8 8 14 18 14 40 0 113 34 157 72 131
115 139 310 19 433 -66 68 -120 90 -224 90 -73 0 -92 -4 -135 -27 -110 -57
-170 -154 -170 -274 1 -153 104 -267 265 -296 l58 -10 -23 -66 c-162 -476
-336 -737 -573 -860 l-74 -39 118 -99 c144 -119 279 -252 324 -318 l34 -50
-82 -76 c-335 -315 -807 -486 -1282 -467 -391 17 -737 162 -1013 426 -150 144
-303 359 -349 491 -37 105 -34 249 7 388 15 48 23 58 94 111 43 32 144 98 224
147 80 49 146 92 147 97 0 4 -10 7 -22 7 -13 0 -53 7 -90 15 -191 40 -341 174
-439 392 -31 70 -81 220 -129 388 -18 61 -43 133 -56 161 -13 28 -24 53 -24
56 0 3 19 9 43 12 84 14 169 83 208 171 31 69 31 171 0 241 -61 140 -236 217
-378 166z m220 -31 c173 -84 218 -298 92 -439 -60 -67 -128 -96 -220 -96 -158
1 -271 108 -283 267 -4 60 -2 73 27 131 36 75 88 121 165 148 65 24 158 19
219 -11z m3224 -699 c62 -32 105 -74 133 -129 34 -65 35 -188 3 -248 -92 -173
-334 -213 -466 -77 -58 61 -81 116 -81 197 -1 121 66 221 177 265 68 27 173
23 234 -8z m-6414 -8 c109 -37 187 -147 187 -264 0 -235 -275 -369 -463 -225
-180 138 -135 414 80 491 52 18 140 17 196 -2z"/>
</g>
</svg>
